<svg xmlns="http://www.w3.org/2000/svg" xmlns:xlink="http://www.w3.org/1999/xlink" width="500" zoomAndPan="magnify" viewBox="0 0 375 374.999991" height="500" preserveAspectRatio="xMidYMid meet" version="1.0"><defs><filter x="0%" y="0%" width="100%" height="100%" id="id1"><feColorMatrix values="0 0 0 0 1 0 0 0 0 1 0 0 0 0 1 0 0 0 1 0" color-interpolation-filters="sRGB"/></filter><clipPath id="id2"><path d="M 94.242188 95.738281 L 292.242188 95.738281 L 292.242188 293.738281 L 94.242188 293.738281 Z M 94.242188 95.738281 " clip-rule="nonzero"/></clipPath><clipPath id="id3"><path d="M 142 133 L 264 133 L 264 240.113281 L 142 240.113281 Z M 142 133 " clip-rule="nonzero"/></clipPath><clipPath id="id4"><path d="M 142 136 L 263 136 L 263 240.113281 L 142 240.113281 Z M 142 136 " clip-rule="nonzero"/></clipPath><mask id="id5"><g filter="url(#id1)"><rect x="-37.5" width="450" fill="#000000" y="-37.499999" height="449.999989" fill-opacity="0.298"/></g></mask><clipPath id="id6"><path d="M 0.800781 0.800781 L 120.558594 0.800781 L 120.558594 104.113281 L 0.800781 104.113281 Z M 0.800781 0.800781 " clip-rule="nonzero"/></clipPath><clipPath id="id7"><rect x="0" width="121" y="0" height="105"/></clipPath><clipPath id="id8"><path d="M 163 147 L 263 147 L 263 240.113281 L 163 240.113281 Z M 163 147 " clip-rule="nonzero"/></clipPath><clipPath id="id9"><path d="M 141.339844 132.113281 L 265 132.113281 L 265 240.113281 L 141.339844 240.113281 Z M 141.339844 132.113281 " clip-rule="nonzero"/></clipPath><clipPath id="id10"><path d="M 145 207 L 167.433594 207 L 167.433594 228 L 145 228 Z M 145 207 " clip-rule="nonzero"/></clipPath><clipPath id="id11"><path d="M 105.4375 181.097656 L 156 181.097656 L 156 238.097656 L 105.4375 238.097656 Z M 105.4375 181.097656 " clip-rule="nonzero"/></clipPath></defs><g clip-path="url(#id2)"><path fill="#f18644" d="M 193.242188 95.738281 C 138.65625 95.738281 94.242188 140.152344 94.242188 194.742188 C 94.242188 249.332031 138.65625 293.738281 193.242188 293.738281 C 247.832031 293.738281 292.242188 249.332031 292.242188 194.742188 C 292.242188 140.152344 247.832031 95.738281 193.242188 95.738281 Z M 193.242188 291.160156 C 140.078125 291.160156 96.824219 247.90625 96.824219 194.742188 C 96.824219 141.574219 140.078125 98.324219 193.242188 98.324219 C 246.410156 98.324219 289.664062 141.578125 289.664062 194.742188 C 289.664062 247.90625 246.410156 291.160156 193.242188 291.160156 Z M 193.242188 291.160156 " fill-opacity="1" fill-rule="nonzero"/></g><path fill="#f18644" d="M 193.242188 103.46875 C 142.917969 103.46875 101.972656 144.414062 101.972656 194.742188 C 101.972656 245.070312 142.917969 286.011719 193.242188 286.011719 C 243.574219 286.011719 284.515625 245.066406 284.515625 194.742188 C 284.515625 144.414062 243.570312 103.46875 193.242188 103.46875 Z M 193.242188 103.46875 " fill-opacity="1" fill-rule="nonzero"/><g clip-path="url(#id3)"><path fill="#ffffff" d="M 142.457031 231.683594 L 142.894531 240.101562 L 173.605469 240.101562 L 173.058594 231.683594 Z M 149.507812 194.785156 C 149.507812 194.785156 148.726562 181.035156 160.3125 166.796875 C 157.65625 153.636719 161.21875 136.003906 164.597656 133.410156 C 170.980469 133.78125 184.3125 138.441406 191.71875 150.171875 C 199.214844 147.507812 209.796875 146.804688 220.46875 149.460938 C 220.46875 149.460938 233.101562 136.222656 247.910156 133.410156 C 255.097656 138.640625 252.84375 164.132812 252.917969 167.339844 C 257.929688 176.25 276.878906 203.484375 245.730469 222.585938 C 249.871094 233.207031 251.515625 239.957031 251.515625 239.957031 L 174.730469 240.105469 C 174.730469 240.105469 173.308594 225.167969 171.785156 217.777344 C 170.261719 210.386719 168.839844 197.992188 165.582031 196.539062 C 162.320312 195.085938 159.773438 198.53125 159.773438 198.53125 C 159.773438 198.53125 156.089844 189.511719 153.210938 197.554688 C 154.039062 194.511719 149.507812 194.785156 149.507812 194.785156 Z M 149.507812 194.785156 " fill-opacity="1" fill-rule="nonzero"/></g><path fill="#efb07d" d="M 169.792969 206.25 C 167.398438 194.183594 162.496094 195.378906 159.773438 198.53125 C 159.339844 194.835938 155.417969 193.640625 153.128906 196.574219 C 144.308594 187.878906 142.894531 213.679688 142.894531 213.679688 L 142.894531 230.378906 C 142.894531 230.378906 144.871094 236.792969 158.410156 236.792969 C 170.226562 236.792969 173.605469 231.574219 173.605469 231.574219 C 173.605469 231.574219 172.1875 218.316406 169.792969 206.25 Z M 220.085938 149.621094 C 222.699219 145.714844 239.523438 132.113281 247.691406 133.421875 C 256.949219 144.074219 252.484375 167.339844 252.484375 167.339844 C 252.484375 167.339844 260.128906 177.542969 261.039062 187.402344 C 260.742188 194.675781 240.9375 207.410156 218.289062 188.492188 C 196.769531 170.511719 214.097656 148.53125 214.097656 148.53125 C 214.097656 148.53125 217.035156 148.738281 220.085938 149.621094 Z M 166.445312 139.726562 L 173.605469 154.21875 C 173.605469 154.21875 167.207031 159.511719 165.523438 164.074219 C 163.839844 159.726562 163.390625 148.640625 166.445312 139.726562 Z M 166.445312 139.726562 " fill-opacity="1" fill-rule="nonzero"/><g clip-path="url(#id4)"><g mask="url(#id5)"><g transform="matrix(1, 0, 0, 1, 142, 136)"><g clip-path="url(#id7)"><g clip-path="url(#id6)"><path fill="#ff1616" d="M 0.894531 104.101562 C 0.894531 104.101562 0.894531 104.101562 14.125 104.101562 C 3.835938 103.171875 2.578125 75.46875 2.578125 75.46875 Z M 97.996094 18.21875 C 97.996094 18.21875 103.660156 6.480469 104.601562 3.726562 C 107 9.523438 107.394531 24.019531 105.527344 28.074219 C 101.855469 23.609375 97.996094 18.21875 97.996094 18.21875 Z M 32.667969 104.101562 C 31.457031 96.527344 29.796875 86.101562 28.457031 77.699219 C 28.460938 77.703125 28.46875 77.707031 28.476562 77.707031 L 27.105469 62.621094 C 27.191406 62.726562 27.304688 62.875 27.4375 63.066406 C 28.476562 64.566406 30.824219 68.878906 32.722656 79.125 C 40.5 81.4375 50.742188 83.027344 64.222656 83.121094 C 116.496094 82.761719 120.058594 59.878906 120.058594 59.878906 C 120.058594 59.878906 121.003906 62.964844 118.996094 68.003906 C 119.582031 67.511719 120.023438 67.121094 120.269531 66.878906 C 118.730469 78.4375 103.660156 87.351562 103.660156 87.351562 L 109.515625 104.105469 C 109.515625 104.105469 103.371094 104.105469 96.691406 104.105469 C 92.625 90.855469 87.710938 91.203125 87.710938 91.203125 C 77.476562 93.441406 67.652344 94.042969 64.222656 94.042969 C 60.792969 94.042969 50.96875 93.441406 40.734375 91.203125 C 40.734375 91.203125 38.222656 91.027344 35.304688 95.769531 C 36.363281 102.519531 36.703125 104.097656 36.703125 104.097656 Z M 49.996094 14.171875 L 43.96875 15.902344 C 43.96875 15.902344 41.71875 7.816406 31.882812 0.988281 C 38.742188 2.859375 46.148438 7.804688 49.996094 14.171875 Z M 97.039062 0.988281 C 87.203125 7.816406 84.953125 15.902344 84.953125 15.902344 L 78.925781 14.171875 C 82.773438 7.804688 90.179688 2.859375 97.039062 0.988281 Z M 60.246094 64.671875 C 60.246094 64.671875 65.179688 65.804688 69.390625 64.550781 C 68.8125 69.378906 61.695312 69.816406 60.246094 64.671875 Z M 60.246094 64.671875 " fill-opacity="1" fill-rule="nonzero"/></g></g></g></g></g><g clip-path="url(#id8)"><path fill="#ffffff" d="M 251.726562 147.492188 C 251.726562 147.492188 252.832031 162.632812 247.648438 169.875 C 253.136719 173.859375 262.546875 186.800781 262.28125 197.335938 C 264.351562 190.488281 261.378906 178.785156 253.175781 168.316406 C 254.007812 162.121094 253.175781 153.59375 251.726562 147.492188 Z M 171.570312 225.785156 C 168.632812 204.019531 163.609375 197.355469 163.609375 197.355469 C 171.875 195.128906 172.332031 216.105469 171.570312 225.785156 Z M 256.386719 211.46875 C 256.386719 211.46875 246.277344 220.707031 240.070312 221.683594 C 242.574219 224.835938 247.648438 240.105469 247.648438 240.105469 L 252.15625 240.105469 L 246.277344 222.988281 C 246.277344 222.988281 256.15625 218.105469 256.386719 211.46875 Z M 256.386719 211.46875 " fill-opacity="1" fill-rule="nonzero"/></g><g clip-path="url(#id9)"><path fill="#2b0806" d="M 141.261719 240.101562 C 142.648438 240.101562 144.472656 240.101562 144.472656 240.101562 C 144.5 234.808594 143.566406 207.449219 146.347656 198.230469 C 147.820312 193.347656 152.410156 195.683594 153.035156 199.742188 C 153.449219 197.707031 153.921875 195.511719 156.007812 195.730469 C 158.589844 195.996094 159.644531 200.546875 159.644531 200.546875 C 159.644531 200.546875 161.714844 197.230469 163.609375 197.355469 C 166.601562 197.550781 168.570312 201.9375 170.007812 211.28125 C 170.8125 216.53125 172.886719 240.101562 172.886719 240.101562 L 175.5625 240.101562 C 175.5625 240.101562 174.09375 223.855469 173.621094 220.335938 L 173.605469 220.234375 L 173.226562 217.492188 C 172.367188 211.460938 171.410156 205.992188 170.484375 202.53125 C 168.082031 193.523438 162.628906 192.574219 160.167969 196.898438 C 158.90625 192.261719 153.429688 191.488281 152.851562 195.570312 C 152.671875 194.71875 151.820312 193.691406 150.621094 193.265625 C 151.097656 186.308594 154.148438 177.917969 161.5 167.878906 C 159.894531 164.511719 158.179688 148.65625 164.925781 134.726562 C 168.339844 134.726562 179.773438 137.515625 190.808594 149.492188 C 188.933594 150.140625 187.171875 150.933594 185.691406 151.902344 C 186.152344 151.921875 196.230469 149.0625 206.308594 149.0625 C 216.390625 149.0625 226.46875 151.921875 226.929688 151.902344 C 225.449219 150.933594 223.6875 150.140625 221.8125 149.492188 C 232.847656 137.515625 244.28125 134.726562 247.691406 134.726562 C 254.441406 148.65625 252.726562 164.511719 251.117188 167.882812 C 277.75 204.246094 247.960938 218.980469 243.71875 222.28125 C 246.113281 227.171875 250.523438 240.101562 250.523438 240.101562 L 253.480469 240.101562 C 253.480469 240.101562 250.621094 231.09375 247.136719 223.050781 C 273.71875 207.449219 265.117188 181.902344 254.226562 168.316406 C 257.492188 149.078125 250.742188 132.554688 248.128906 132.113281 C 230.808594 135.421875 221.960938 145.722656 219.644531 148.816406 C 216.535156 147.945312 211.421875 146.675781 206.308594 146.675781 C 201.203125 146.671875 196.09375 147.941406 192.976562 148.816406 C 190.660156 145.722656 181.808594 135.421875 164.492188 132.113281 C 161.878906 132.554688 155.125 149.078125 158.394531 168.316406 C 153.226562 174.761719 148.578125 183.902344 147.957031 193.394531 C 147.058594 193.789062 146.113281 194.566406 145.1875 195.890625 C 143.453125 198.359375 143.191406 201.546875 142.375 207.964844 C 141.621094 213.886719 141.261719 236.601562 141.261719 240.101562 Z M 166.445312 139.726562 C 166.445312 139.726562 171.410156 146.746094 175.0625 154.214844 C 172.613281 155.816406 167.582031 161.03125 165.523438 164.074219 C 164.554688 162.335938 169.585938 154.964844 172.144531 153.53125 C 169.480469 150.707031 166.445312 139.726562 166.445312 139.726562 Z M 246.601562 139.726562 C 246.601562 139.726562 241.636719 146.746094 237.988281 154.214844 C 240.4375 155.816406 245.46875 161.03125 247.527344 164.074219 C 248.496094 162.335938 243.464844 154.964844 240.90625 153.53125 C 243.570312 150.707031 246.601562 139.726562 246.601562 139.726562 Z M 232.75 174.855469 C 238.292969 176.160156 242.050781 181.683594 243.195312 186.261719 C 243.367188 186.960938 242.992188 187.515625 242.214844 187.707031 C 240.957031 188.023438 238.667969 187.382812 238.332031 186.035156 C 237.890625 184.277344 237.144531 182.679688 236.109375 181.289062 C 235.328125 180.242188 233.800781 178.433594 232.367188 178.074219 C 231.210938 177.785156 230.105469 179.671875 229.511719 180.683594 L 229.371094 180.921875 C 228.355469 182.636719 227.53125 184.621094 226.929688 186.824219 C 226.71875 187.597656 225.957031 187.902344 225.117188 187.902344 C 224.765625 187.902344 224.398438 187.847656 224.054688 187.753906 C 222.644531 187.367188 221.835938 186.453125 222.089844 185.527344 C 224.3125 177.425781 227.996094 173.738281 232.75 174.855469 Z M 169.859375 185.527344 C 172.082031 177.425781 175.765625 173.738281 180.519531 174.855469 C 186.0625 176.160156 189.820312 181.683594 190.964844 186.261719 C 191.070312 186.6875 190.96875 187.070312 190.683594 187.347656 C 190.085938 187.925781 188.890625 187.847656 188.046875 187.605469 C 187 187.304688 186.273438 186.71875 186.101562 186.035156 C 185.660156 184.277344 184.914062 182.679688 183.878906 181.289062 C 183.097656 180.242188 181.570312 178.433594 180.136719 178.074219 C 178.980469 177.789062 177.875 179.671875 177.28125 180.6875 L 177.140625 180.921875 C 176.125 182.636719 175.304688 184.621094 174.699219 186.824219 C 174.5625 187.316406 174.171875 187.667969 173.597656 187.820312 C 173.378906 187.875 173.136719 187.902344 172.886719 187.902344 C 171.953125 187.902344 170.886719 187.523438 170.292969 186.925781 C 169.882812 186.511719 169.726562 186.011719 169.859375 185.527344 Z M 198.488281 187.964844 C 199.078125 188.277344 199.355469 189.285156 198.78125 190.363281 C 198.445312 190.988281 198.804688 191.636719 199.046875 191.964844 C 199.679688 192.828125 200.820312 193.355469 201.695312 193.191406 C 203.203125 192.910156 204.113281 191.136719 204.734375 189.628906 C 205.027344 188.921875 205.636719 188.484375 206.328125 188.484375 C 207.023438 188.484375 207.632812 188.921875 207.921875 189.628906 C 208.433594 190.867188 209.386719 193.175781 210.960938 193.46875 C 211.632812 193.59375 212.46875 193.269531 213.132812 192.628906 C 214.121094 191.640625 213.824219 190.347656 213.71875 189.996094 C 213.707031 189.96875 213.699219 189.941406 213.6875 189.90625 L 213.457031 189.296875 L 213.574219 189.296875 C 213.542969 188.65625 213.796875 188.109375 214.257812 187.925781 C 214.648438 187.765625 215.226562 187.886719 215.664062 188.707031 C 216.476562 190.234375 216.523438 192.046875 215.785156 193.558594 C 215.101562 194.964844 213.808594 195.929688 212.246094 196.207031 C 210 196.605469 207.964844 195.660156 206.328125 193.46875 C 204.9375 195.335938 203.257812 196.296875 201.402344 196.296875 C 201.078125 196.296875 200.746094 196.265625 200.414062 196.207031 C 198.847656 195.929688 197.558594 194.964844 196.875 193.558594 C 196.136719 192.046875 196.179688 190.234375 196.996094 188.707031 C 197.464844 187.824219 198.09375 187.753906 198.488281 187.964844 Z M 198.488281 187.964844 " fill-opacity="1" fill-rule="nonzero"/></g><path fill="#ff1616" d="M 156.542969 209.871094 C 157.355469 208.960938 160.613281 206.480469 162.707031 210.523438 C 164.800781 214.566406 159.089844 218.609375 156.542969 218.609375 C 153.996094 218.609375 148.285156 214.566406 150.378906 210.523438 C 152.472656 206.480469 155.730469 208.960938 156.542969 209.871094 Z M 154.546875 203.0625 C 154.546875 201.828125 155.253906 200.828125 156.125 200.828125 C 157 200.828125 157.707031 201.828125 157.707031 203.0625 C 157.707031 204.296875 157 205.296875 156.125 205.296875 C 155.253906 205.296875 154.546875 204.296875 154.546875 203.0625 Z M 149.644531 202.171875 C 150.53125 202.035156 151.417969 202.859375 151.625 204.007812 C 151.832031 205.15625 151.285156 206.199219 150.398438 206.332031 C 149.511719 206.464844 148.625 205.644531 148.417969 204.492188 C 148.210938 203.34375 148.761719 202.304688 149.644531 202.171875 Z M 162.417969 206.445312 C 161.523438 206.183594 161.125 205.042969 161.527344 203.898438 C 161.933594 202.75 162.988281 202.027344 163.882812 202.289062 C 164.777344 202.546875 165.175781 203.6875 164.769531 204.832031 C 164.363281 205.980469 163.3125 206.703125 162.417969 206.445312 Z M 162.417969 206.445312 " fill-opacity="1" fill-rule="nonzero"/><g clip-path="url(#id10)"><path fill="#000000" d="M 167.433594 213.75 C 167.433594 210.105469 165.078125 207.105469 161.5 207.105469 C 159.710938 207.105469 157.511719 209.050781 156.375 210.265625 C 155.234375 209.050781 153.203125 207.109375 151.414062 207.109375 C 147.835938 207.109375 145.316406 210.105469 145.316406 213.75 C 145.316406 215.613281 146.046875 217.234375 147.183594 218.449219 L 156.375 227.601562 L 165.566406 218.449219 C 166.703125 217.234375 167.433594 215.613281 167.433594 213.75 Z M 167.433594 213.75 " fill-opacity="1" fill-rule="nonzero"/></g><g clip-path="url(#id11)"><path fill="#000000" d="M 128.398438 242.507812 C 127.585938 242.425781 127.015625 241.941406 126.933594 241.292969 L 122.300781 214.234375 L 115.222656 227.277344 C 114.898438 227.847656 114.25 228.167969 113.597656 228.007812 C 112.945312 227.925781 112.460938 227.359375 112.378906 226.710938 L 109.367188 205.8125 L 103.921875 218.042969 C 103.675781 218.609375 103.105469 218.933594 102.539062 218.933594 L 81.230469 218.933594 C 80.417969 218.933594 79.683594 218.285156 79.683594 217.394531 C 79.683594 216.585938 80.335938 215.855469 81.230469 215.855469 L 101.5625 215.855469 L 108.800781 199.734375 C 109.042969 199.085938 109.695312 198.761719 110.34375 198.84375 C 110.996094 198.925781 111.566406 199.492188 111.644531 200.140625 L 114.734375 221.6875 L 121.730469 208.808594 C 122.054688 208.242188 122.625 207.917969 123.277344 208.078125 C 123.925781 208.160156 124.414062 208.648438 124.496094 209.292969 L 128.804688 234.328125 L 144.5 182.320312 C 144.664062 181.75 145.234375 181.265625 145.800781 181.265625 C 146.453125 181.183594 147.023438 181.589844 147.265625 182.074219 L 155.5625 199.167969 C 155.886719 199.898438 155.644531 200.789062 154.828125 201.195312 C 154.097656 201.519531 153.203125 201.273438 152.796875 200.464844 L 146.210938 186.855469 L 129.78125 241.292969 C 129.617188 242.101562 129.050781 242.507812 128.398438 242.507812 Z M 128.398438 242.507812 " fill-opacity="1" fill-rule="nonzero"/></g></svg>