<svg xmlns="http://www.w3.org/2000/svg" xmlns:xlink="http://www.w3.org/1999/xlink" width="500" zoomAndPan="magnify" viewBox="0 0 375 374.999991" height="500" preserveAspectRatio="xMidYMid meet" version="1.0"><defs><g/><clipPath id="id1"><path d="M 38.554688 172.757812 L 61 172.757812 L 61 187 L 38.554688 187 Z M 38.554688 172.757812 " clip-rule="nonzero"/></clipPath><clipPath id="id2"><path d="M 38.554688 172.757812 L 61.054688 172.757812 L 61.054688 187.007812 L 38.554688 187.007812 Z M 38.554688 172.757812 " clip-rule="nonzero"/></clipPath><clipPath id="id3"><path d="M 312.273438 172.757812 L 334.773438 172.757812 L 334.773438 187 L 312.273438 187 Z M 312.273438 172.757812 " clip-rule="nonzero"/></clipPath><clipPath id="id4"><path d="M 312.273438 172.757812 L 334.773438 172.757812 L 334.773438 187.007812 L 312.273438 187.007812 Z M 312.273438 172.757812 " clip-rule="nonzero"/></clipPath><clipPath id="id5"><path d="M 107.65625 234.957031 L 277.15625 234.957031 L 277.15625 258.207031 L 107.65625 258.207031 Z M 107.65625 234.957031 " clip-rule="nonzero"/></clipPath></defs><rect x="-37.5" width="450" fill="#ffffff" y="-37.499999" height="449.999989" fill-opacity="1"/><rect x="-37.5" width="450" fill="#ffffff" y="-37.499999" height="449.999989" fill-opacity="1"/><rect x="-37.5" width="450" fill="#000000" y="-37.499999" height="449.999989" fill-opacity="1"/><g fill="#ffffff" fill-opacity="1"><g transform="translate(82.938128, 194.049112)"><g><path d="M 6.890625 -0.191406 L 6.890625 0 L 18.121094 0 L 18.121094 -0.191406 C 16.078125 -0.894531 15.375 -2.742188 15.375 -7.527344 L 15.375 -32.539062 L 17.609375 -32.539062 C 20.417969 -32.539062 22.839844 -30.5625 23.796875 -27.433594 L 24.054688 -27.5 L 22.90625 -36.878906 C 22.585938 -36.558594 21.5 -36.367188 20.289062 -36.367188 L 4.65625 -36.367188 C 3.445312 -36.367188 2.359375 -36.558594 2.042969 -36.878906 L 0.894531 -27.5 L 1.148438 -27.433594 C 2.105469 -30.5625 4.53125 -32.539062 7.335938 -32.539062 L 9.632812 -32.539062 L 9.632812 -7.527344 C 9.632812 -2.742188 8.933594 -0.894531 6.890625 -0.191406 Z M 6.890625 -0.191406 "/></g></g></g><g fill="#ffffff" fill-opacity="1"><g transform="translate(109.860667, 194.049112)"><g><path d="M 0.894531 -0.191406 L 0.894531 0 L 12.121094 0 L 12.121094 -0.191406 C 10.082031 -0.894531 9.378906 -2.742188 9.378906 -7.527344 L 9.378906 -19.585938 L 20.351562 -19.585938 L 20.351562 -7.527344 C 20.351562 -2.742188 19.652344 -0.894531 17.609375 -0.191406 L 17.609375 0 L 28.839844 0 L 28.839844 -0.191406 C 26.796875 -0.894531 26.09375 -2.742188 26.09375 -7.527344 L 26.09375 -28.839844 C 26.09375 -33.625 26.796875 -35.472656 28.839844 -36.175781 L 28.839844 -36.367188 L 17.609375 -36.367188 L 17.609375 -36.175781 C 19.652344 -35.472656 20.351562 -33.625 20.351562 -28.839844 L 20.351562 -26.925781 L 9.378906 -26.925781 L 9.378906 -28.839844 C 9.378906 -33.625 10.082031 -35.472656 12.121094 -36.175781 L 12.121094 -36.367188 L 0.894531 -36.367188 L 0.894531 -36.175781 C 2.933594 -35.472656 3.636719 -33.625 3.636719 -28.839844 L 3.636719 -7.527344 C 3.636719 -2.742188 2.933594 -0.894531 0.894531 -0.191406 Z M 9.378906 -20.863281 L 9.378906 -22.457031 L 20.351562 -22.457031 L 20.351562 -20.863281 Z M 9.378906 -20.863281 "/></g></g></g><g fill="#ffffff" fill-opacity="1"><g transform="translate(141.567969, 194.049112)"><g><path d="M 0.894531 -0.191406 L 0.894531 0 L 20.351562 0 C 21.117188 0 21.949219 0.320312 22.203125 0.703125 L 23.925781 -8.675781 L 23.671875 -8.742188 C 22.457031 -5.742188 19.394531 -3.828125 15.824219 -3.828125 L 9.378906 -3.828125 L 9.378906 -21.5 C 9.824219 -21.949219 10.398438 -22.203125 11.101562 -22.203125 C 13.398438 -22.203125 15.3125 -20.417969 17.480469 -20.417969 C 20.160156 -20.417969 22.265625 -23.160156 22.839844 -25.585938 L 22.648438 -25.648438 C 22.140625 -24.820312 21.308594 -24.4375 20.289062 -24.4375 C 18.183594 -24.4375 16.207031 -25.96875 13.910156 -25.96875 C 11.996094 -25.96875 10.398438 -24.882812 9.507812 -23.160156 L 9.378906 -23.160156 L 9.378906 -32.730469 L 16.140625 -32.730469 C 18.820312 -32.730469 20.035156 -31.835938 19.84375 -30.050781 L 20.035156 -29.988281 L 23.414062 -36.878906 C 23.03125 -36.496094 21.691406 -36.367188 20.800781 -36.367188 L 0.894531 -36.367188 L 0.894531 -36.175781 C 2.933594 -35.472656 3.636719 -33.625 3.636719 -28.839844 L 3.636719 -7.527344 C 3.636719 -2.742188 2.933594 -0.894531 0.894531 -0.191406 Z M 0.894531 -0.191406 "/></g></g></g><g fill="#ffffff" fill-opacity="1"><g transform="translate(168.235316, 194.049112)"><g/></g></g><g fill="#ffffff" fill-opacity="1"><g transform="translate(186.800464, 194.049112)"><g><path d="M 16.207031 -3.316406 C 10.71875 -3.316406 7.144531 -13.972656 7.144531 -22.585938 C 7.144531 -28.265625 8.742188 -33.050781 12.441406 -33.050781 C 17.929688 -33.050781 21.4375 -22.394531 21.4375 -13.84375 C 21.4375 -8.101562 19.84375 -3.316406 16.207031 -3.316406 Z M 1.53125 -18.820312 C 1.53125 -7.019531 6.507812 0.574219 14.292969 0.574219 C 21.882812 0.574219 27.050781 -7.019531 27.050781 -18.183594 C 27.050781 -29.347656 21.882812 -36.941406 14.292969 -36.941406 C 6.316406 -36.941406 1.53125 -30.179688 1.53125 -18.820312 Z M 1.53125 -18.820312 "/></g></g></g><g fill="#ffffff" fill-opacity="1"><g transform="translate(217.359414, 194.049112)"><g><path d="M 0.894531 -0.191406 L 0.894531 0 L 10.527344 0 C 20.671875 0 27.050781 -7.335938 27.050781 -19.140625 C 27.050781 -29.988281 21.566406 -36.367188 12.121094 -36.367188 L 0.894531 -36.367188 L 0.894531 -36.175781 C 2.933594 -35.472656 3.636719 -33.625 3.636719 -28.839844 L 3.636719 -7.527344 C 3.636719 -2.742188 2.933594 -0.894531 0.894531 -0.191406 Z M 9.378906 -3.828125 L 9.378906 -32.539062 L 10.972656 -32.539062 C 17.097656 -32.539062 21.117188 -27.433594 21.117188 -19.011719 C 21.117188 -9.699219 16.714844 -3.828125 10.207031 -3.828125 Z M 9.378906 -3.828125 "/></g></g></g><g fill="#ffffff" fill-opacity="1"><g transform="translate(247.918365, 194.049112)"><g><path d="M 0.894531 -0.191406 L 0.894531 0 L 12.121094 0 L 12.121094 -0.191406 C 10.082031 -0.894531 9.378906 -2.742188 9.378906 -7.527344 L 9.378906 -28.839844 C 9.378906 -33.625 10.082031 -35.472656 12.121094 -36.175781 L 12.121094 -36.367188 L 0.894531 -36.367188 L 0.894531 -36.175781 C 2.933594 -35.472656 3.636719 -33.625 3.636719 -28.839844 L 3.636719 -7.527344 C 3.636719 -2.742188 2.933594 -0.894531 0.894531 -0.191406 Z M 0.894531 -0.191406 "/></g></g></g><g fill="#ffffff" fill-opacity="1"><g transform="translate(262.91088, 194.049112)"><g><path d="M 0.894531 -0.191406 L 0.894531 0 L 10.972656 0 L 10.972656 -0.191406 C 8.292969 -1.085938 8.230469 -4.59375 8.230469 -6.890625 L 8.230469 -28.199219 C 15.441406 -26.667969 21.117188 -14.164062 21.117188 0 L 25.648438 0 L 25.648438 -29.476562 C 25.648438 -31.773438 25.710938 -35.28125 28.390625 -36.175781 L 28.390625 -36.367188 L 18.3125 -36.367188 L 18.3125 -36.175781 C 20.992188 -35.28125 21.054688 -31.773438 21.054688 -29.476562 L 21.054688 -20.351562 C 17.992188 -29.539062 11.867188 -37.003906 0.894531 -36.367188 L 0.894531 -36.175781 C 2.808594 -35.15625 3.636719 -32.921875 3.636719 -28.582031 L 3.636719 -6.890625 C 3.636719 -4.59375 3.574219 -1.085938 0.894531 -0.191406 Z M 0.894531 -0.191406 "/></g></g></g><g clip-path="url(#id1)"><path fill="#ffffff" d="M 38.652344 179.949219 L 49.742188 186.914062 L 60.960938 179.820312 L 49.742188 172.859375 Z M 38.652344 179.949219 " fill-opacity="1" fill-rule="nonzero"/></g><g clip-path="url(#id2)"><path fill="#ffffff" d="M 49.742188 187.007812 C 49.722656 187.007812 49.707031 187.003906 49.691406 186.992188 L 38.601562 180.035156 C 38.574219 180.015625 38.554688 179.988281 38.554688 179.953125 C 38.554688 179.921875 38.570312 179.890625 38.597656 179.875 L 49.6875 172.777344 C 49.71875 172.757812 49.757812 172.757812 49.789062 172.777344 L 61.007812 179.742188 C 61.035156 179.761719 61.054688 179.789062 61.054688 179.820312 C 61.054688 179.855469 61.039062 179.886719 61.007812 179.902344 L 49.789062 186.992188 C 49.773438 187.003906 49.757812 187.007812 49.742188 187.007812 Z M 38.832031 179.949219 L 49.742188 186.800781 L 60.78125 179.816406 L 49.742188 172.972656 Z M 38.832031 179.949219 " fill-opacity="1" fill-rule="nonzero"/></g><g clip-path="url(#id3)"><path fill="#ffffff" d="M 312.371094 179.949219 L 323.460938 186.914062 L 334.679688 179.820312 L 323.460938 172.859375 Z M 312.371094 179.949219 " fill-opacity="1" fill-rule="nonzero"/></g><g clip-path="url(#id4)"><path fill="#ffffff" d="M 323.460938 187.007812 C 323.441406 187.007812 323.425781 187.003906 323.410156 186.992188 L 312.320312 180.035156 C 312.292969 180.015625 312.273438 179.988281 312.273438 179.953125 C 312.273438 179.921875 312.289062 179.890625 312.316406 179.875 L 323.40625 172.777344 C 323.4375 172.757812 323.480469 172.757812 323.507812 172.777344 L 334.730469 179.742188 C 334.753906 179.761719 334.773438 179.789062 334.773438 179.820312 C 334.773438 179.855469 334.757812 179.886719 334.730469 179.902344 L 323.507812 186.992188 C 323.492188 187.003906 323.480469 187.007812 323.460938 187.007812 Z M 312.550781 179.949219 L 323.460938 186.800781 L 334.5 179.816406 L 323.460938 172.972656 Z M 312.550781 179.949219 " fill-opacity="1" fill-rule="nonzero"/></g><g clip-path="url(#id5)"><path fill="#ffffff" d="M 192.347656 254.144531 L 190.761719 252.558594 L 192.347656 250.972656 L 193.929688 252.558594 Z M 192.929688 249.285156 C 192.621094 248.984375 192.128906 248.984375 191.820312 249.285156 L 189.128906 251.980469 C 188.824219 252.285156 188.824219 252.78125 189.128906 253.085938 L 191.820312 255.78125 C 192.128906 256.082031 192.621094 256.082031 192.929688 255.78125 L 195.617188 253.085938 C 195.921875 252.78125 195.921875 252.285156 195.617188 251.980469 Z M 314.269531 128.960938 L 315.851562 130.546875 L 314.269531 132.132812 L 312.6875 130.546875 Z M 314.269531 134.035156 C 314.484375 134.042969 314.695312 133.96875 314.851562 133.824219 L 317.542969 131.128906 C 317.84375 130.820312 317.84375 130.328125 317.542969 130.019531 L 314.851562 127.324219 C 314.542969 127.023438 314.050781 127.023438 313.742188 127.324219 L 311.050781 130.019531 C 310.75 130.328125 310.75 130.820312 311.050781 131.128906 L 313.742188 133.824219 C 313.886719 133.953125 314.074219 134.03125 314.269531 134.035156 Z M 192.347656 10.117188 L 190.761719 8.535156 L 192.347656 6.949219 L 193.929688 8.535156 Z M 192.875 5.3125 C 192.566406 5.011719 192.074219 5.011719 191.769531 5.3125 L 189.074219 8.007812 C 188.773438 8.316406 188.773438 8.808594 189.074219 9.117188 L 191.769531 11.8125 C 192.074219 12.113281 192.566406 12.113281 192.875 11.8125 L 195.566406 9.117188 C 195.867188 8.808594 195.867188 8.316406 195.566406 8.007812 Z M 70.425781 132.132812 L 68.839844 130.546875 L 70.425781 128.960938 L 72.007812 130.546875 Z M 69.898438 127.273438 L 67.207031 129.964844 C 66.902344 130.273438 66.902344 130.765625 67.207031 131.074219 L 69.898438 133.769531 C 70.207031 134.070312 70.699219 134.070312 71.007812 133.769531 L 73.699219 131.074219 C 74 130.765625 74 130.273438 73.699219 129.964844 L 71.007812 127.273438 C 70.699219 126.972656 70.207031 126.972656 69.898438 127.273438 Z M 185.011719 253.613281 C 184.359375 253.617188 183.824219 253.101562 183.796875 252.453125 C 183.769531 251.78125 184.289062 251.21875 184.957031 251.1875 C 185.628906 251.15625 186.191406 251.675781 186.222656 252.347656 C 186.253906 253.019531 185.734375 253.585938 185.0625 253.613281 C 185.046875 253.613281 185.027344 253.613281 185.011719 253.613281 Z M 166.167969 249.546875 C 170.339844 249.546875 173.136719 250.660156 174.824219 251.660156 L 156.613281 251.660156 C 159.589844 250.210938 162.859375 249.46875 166.167969 249.496094 Z M 138.566406 256.574219 L 141.941406 253.195312 L 150.335938 253.195312 C 146.726562 255.207031 142.695312 256.347656 138.566406 256.519531 Z M 109.375 256.734375 L 112.859375 253.246094 L 116.078125 253.246094 L 112.597656 256.734375 Z M 120.355469 253.246094 L 136.136719 253.246094 L 132.808594 256.574219 C 125.578125 256.046875 121.992188 254.355469 120.355469 253.195312 Z M 136.292969 256.628906 L 134.976562 256.628906 L 138.351562 253.246094 L 139.671875 253.246094 Z M 184.957031 249.652344 C 183.734375 249.675781 182.664062 250.488281 182.320312 251.660156 L 177.515625 251.660156 C 176.566406 250.761719 173.03125 247.964844 166.167969 247.964844 C 160.203125 247.964844 156.5625 249.761719 153.128906 251.660156 L 107.476562 251.660156 C 107.039062 251.660156 106.6875 252.015625 106.6875 252.453125 C 106.6875 252.890625 107.039062 253.246094 107.476562 253.246094 L 110.644531 253.246094 L 107.160156 256.734375 L 99.453125 256.734375 C 103.367188 254.535156 105.789062 250.394531 105.789062 245.90625 C 105.789062 245.46875 105.433594 245.113281 104.996094 245.113281 C 104.558594 245.113281 104.203125 245.46875 104.203125 245.90625 C 104.203125 251.882812 99.359375 256.734375 93.382812 256.734375 L 93.171875 256.734375 C 92.738281 256.734375 92.382812 257.085938 92.382812 257.523438 C 92.382812 257.960938 92.738281 258.316406 93.171875 258.316406 L 118.402344 258.316406 C 118.839844 258.316406 119.195312 257.960938 119.195312 257.523438 C 119.195312 257.085938 118.839844 256.734375 118.402344 256.734375 L 114.867188 256.734375 L 118.191406 253.40625 C 119.457031 254.832031 123.835938 258.210938 136.503906 258.210938 C 144.6875 258.210938 148.910156 255.835938 153.027344 253.511719 L 153.605469 253.195312 L 182.320312 253.195312 C 182.753906 254.675781 184.3125 255.523438 185.792969 255.085938 C 187.273438 254.648438 188.121094 253.089844 187.683594 251.609375 C 187.335938 250.421875 186.25 249.605469 185.011719 249.601562 Z M 69.792969 206.820312 L 69.792969 210.039062 L 66.308594 213.527344 L 66.308594 210.304688 Z M 66.464844 190.074219 L 69.792969 186.746094 L 69.792969 202.539062 C 68.628906 200.847656 66.941406 197.257812 66.464844 190.023438 Z M 69.792969 172.589844 L 69.792969 180.988281 L 66.414062 184.371094 C 66.597656 180.214844 67.753906 176.164062 69.792969 172.539062 Z M 71.375 148.03125 C 72.324219 149.667969 73.484375 152.519531 73.484375 156.691406 C 73.539062 160.019531 72.8125 163.308594 71.375 166.308594 Z M 69.210938 137.835938 C 69.210938 137.164062 69.753906 136.621094 70.425781 136.621094 C 71.09375 136.621094 71.640625 137.164062 71.640625 137.835938 C 71.640625 138.507812 71.097656 139.050781 70.425781 139.050781 C 69.753906 139.050781 69.210938 138.507812 69.210938 137.835938 Z M 66.359375 186.589844 L 66.414062 186.589844 L 69.792969 183.207031 L 69.792969 184.53125 L 66.414062 187.910156 C 66.378906 187.484375 66.359375 187.046875 66.359375 186.589844 Z M 65.519531 230.535156 C 65.953125 230.535156 66.308594 230.179688 66.308594 229.742188 L 66.308594 229.53125 C 66.308594 223.550781 71.152344 218.703125 77.128906 218.703125 C 77.5625 218.703125 77.921875 218.347656 77.921875 217.910156 C 77.921875 217.472656 77.5625 217.117188 77.128906 217.117188 C 72.640625 217.117188 68.503906 219.539062 66.308594 223.457031 L 66.308594 215.742188 L 69.792969 212.257812 L 69.792969 215.429688 C 69.792969 215.867188 70.144531 216.222656 70.582031 216.222656 C 71.019531 216.222656 71.375 215.867188 71.375 215.429688 L 71.375 169.6875 C 73.277344 166.308594 75.070312 162.609375 75.070312 156.640625 C 75.070312 149.773438 72.273438 146.234375 71.375 145.285156 L 71.375 140.425781 C 72.824219 139.890625 73.566406 138.277344 73.027344 136.828125 C 72.492188 135.378906 70.882812 134.636719 69.433594 135.171875 C 67.984375 135.707031 67.246094 137.320312 67.78125 138.769531 C 68.109375 139.660156 68.867188 140.320312 69.792969 140.53125 L 69.792969 169.261719 L 69.476562 169.84375 C 67.152344 173.964844 64.777344 178.191406 64.777344 186.378906 C 64.777344 199.054688 68.207031 203.4375 69.582031 204.707031 L 66.253906 208.035156 L 66.253906 204.492188 C 66.253906 204.054688 65.902344 203.699219 65.464844 203.699219 C 65.027344 203.699219 64.671875 204.054688 64.671875 204.492188 L 64.671875 229.742188 C 64.671875 230.179688 65.023438 230.535156 65.460938 230.535156 C 65.480469 230.535156 65.5 230.535156 65.519531 230.535156 Z M 71.640625 254.882812 L 66.414062 256.363281 L 67.894531 251.132812 L 73.117188 249.652344 Z M 93.804688 252.929688 C 96.488281 252.730469 98.859375 251.121094 100.035156 248.703125 C 102.027344 245.101562 101.332031 240.601562 98.347656 237.769531 C 95.230469 234.8125 90.535156 234.390625 86.472656 236.292969 C 88.371094 232.222656 87.949219 227.523438 84.992188 224.40625 C 82.160156 221.414062 77.667969 220.71875 74.066406 222.714844 C 71.652344 223.894531 70.042969 226.269531 69.84375 228.949219 C 69.679688 231.386719 70.800781 233.730469 72.800781 235.128906 C 73.734375 235.765625 74.839844 236.097656 75.964844 236.078125 L 77.285156 235.921875 C 79.714844 235.339844 81.402344 233.757812 81.824219 231.695312 C 82.191406 229.832031 81.425781 227.925781 79.875 226.835938 C 78.023438 225.570312 75.496094 226.042969 74.226562 227.890625 L 74.171875 227.890625 C 73.496094 228.984375 73.832031 230.414062 74.921875 231.09375 C 76.015625 231.769531 77.445312 231.433594 78.121094 230.339844 C 78.632812 229.511719 78.574219 228.449219 77.972656 227.683594 C 78.332031 227.726562 78.671875 227.851562 78.976562 228.050781 C 80.007812 228.777344 80.523438 230.035156 80.296875 231.273438 C 80.03125 232.75 78.816406 233.863281 76.96875 234.285156 C 75.863281 234.550781 74.695312 234.339844 73.75 233.703125 C 72.179688 232.625 71.296875 230.796875 71.429688 228.898438 C 71.589844 226.757812 72.875 224.867188 74.804688 223.929688 C 77.773438 222.273438 81.488281 222.835938 83.832031 225.304688 C 87.261719 228.84375 86.679688 234.972656 82.5625 238.878906 L 78.710938 242.734375 L 74.066406 238.085938 C 73.804688 237.734375 73.308594 237.667969 72.957031 237.929688 C 72.609375 238.191406 72.539062 238.6875 72.800781 239.039062 C 72.84375 239.097656 72.898438 239.152344 72.957031 239.195312 L 77.601562 243.84375 L 76.125 245.324219 L 73.699219 242.894531 C 73.433594 242.542969 72.941406 242.472656 72.589844 242.734375 C 72.238281 242.996094 72.167969 243.496094 72.429688 243.84375 C 72.476562 243.90625 72.53125 243.957031 72.589844 244.003906 L 75.019531 246.433594 L 73.910156 247.539062 L 67.101562 249.441406 C 66.847656 249.519531 66.648438 249.71875 66.574219 249.972656 L 64.511719 257.261719 C 64.394531 257.683594 64.644531 258.117188 65.066406 258.234375 C 65.125 258.253906 65.191406 258.261719 65.253906 258.261719 L 65.464844 258.261719 L 72.484375 256.257812 C 72.734375 256.179688 72.933594 255.980469 73.011719 255.726562 L 74.964844 248.859375 L 76.074219 247.753906 L 78.5 250.183594 C 78.851562 250.445312 79.34375 250.375 79.609375 250.023438 C 79.820312 249.742188 79.820312 249.355469 79.609375 249.074219 L 77.179688 246.644531 L 78.660156 245.164062 L 83.304688 249.8125 C 83.566406 250.164062 84.0625 250.234375 84.410156 249.972656 C 84.761719 249.710938 84.832031 249.210938 84.570312 248.859375 C 84.523438 248.800781 84.472656 248.746094 84.410156 248.703125 L 79.769531 244.054688 L 83.621094 240.199219 C 87.578125 236.078125 93.648438 235.550781 97.1875 238.933594 C 99.648438 241.277344 100.214844 244.992188 98.558594 247.964844 C 97.621094 249.894531 95.730469 251.183594 93.597656 251.34375 C 91.699219 251.472656 89.871094 250.589844 88.792969 249.019531 C 88.152344 248.078125 87.9375 246.90625 88.214844 245.800781 C 88.632812 243.949219 89.742188 242.734375 91.222656 242.472656 C 92.460938 242.242188 93.71875 242.757812 94.441406 243.792969 C 94.636719 244.09375 94.761719 244.4375 94.8125 244.792969 C 93.804688 243.949219 92.308594 244.074219 91.460938 245.078125 C 90.617188 246.082031 90.742188 247.582031 91.746094 248.429688 C 92.691406 249.230469 94.097656 249.164062 94.96875 248.28125 L 95.019531 248.28125 C 96.558594 246.929688 96.855469 244.644531 95.707031 242.945312 C 94.65625 241.429688 92.832031 240.652344 91.007812 240.9375 C 88.898438 241.363281 87.3125 243.050781 86.785156 245.480469 C 86.425781 247.007812 86.710938 248.613281 87.578125 249.917969 C 88.882812 251.808594 91.035156 252.9375 93.332031 252.929688 Z M 70.476562 253.667969 L 68.527344 254.195312 L 69.054688 252.242188 L 71.007812 251.714844 Z M 314.957031 210.148438 L 314.957031 206.921875 L 318.441406 210.410156 L 318.441406 213.632812 Z M 311.261719 156.800781 C 311.261719 152.625 312.371094 149.824219 313.371094 148.136719 L 313.371094 166.359375 C 311.914062 163.367188 311.175781 160.074219 311.207031 156.746094 Z M 312.949219 137.941406 C 312.953125 137.269531 313.496094 136.726562 314.167969 136.726562 C 314.835938 136.726562 315.378906 137.273438 315.378906 137.941406 C 315.378906 138.59375 314.867188 139.128906 314.21875 139.15625 L 314.164062 139.15625 C 313.496094 139.1875 312.925781 138.667969 312.898438 137.996094 C 312.894531 137.960938 312.894531 137.925781 312.898438 137.890625 Z M 318.28125 184.421875 L 314.902344 181.042969 L 314.902344 172.644531 C 316.910156 176.242188 318.046875 180.257812 318.226562 184.371094 Z M 314.902344 202.644531 L 314.902344 186.800781 L 318.226562 190.125 C 317.753906 197.363281 316.066406 200.953125 314.902344 202.59375 Z M 318.332031 186.695312 C 318.332031 187.152344 318.332031 187.589844 318.332031 188.015625 L 314.957031 184.632812 L 314.957031 183.3125 L 318.332031 186.695312 L 318.386719 186.695312 Z M 319.179688 203.808594 C 318.742188 203.808594 318.386719 204.164062 318.386719 204.601562 L 318.386719 208.140625 L 315.0625 204.8125 C 316.484375 203.542969 319.863281 199.160156 319.863281 186.484375 C 319.863281 178.296875 317.488281 174.070312 315.167969 169.949219 L 314.851562 169.367188 L 314.851562 140.582031 C 316.332031 140.144531 317.179688 138.589844 316.742188 137.105469 C 316.304688 135.621094 314.746094 134.777344 313.265625 135.214844 C 311.785156 135.652344 310.9375 137.207031 311.375 138.691406 C 311.644531 139.601562 312.355469 140.3125 313.265625 140.582031 L 313.265625 145.390625 C 312.371094 146.339844 309.574219 149.878906 309.574219 156.746094 C 309.574219 162.714844 311.367188 166.359375 313.265625 169.792969 L 313.265625 215.480469 C 313.265625 215.917969 313.621094 216.273438 314.058594 216.273438 C 314.496094 216.273438 314.851562 215.917969 314.851562 215.480469 L 314.851562 212.3125 L 318.332031 215.796875 L 318.332031 223.507812 C 316.140625 219.59375 312 217.167969 307.511719 217.167969 C 307.074219 217.167969 306.722656 217.523438 306.722656 217.960938 C 306.722656 218.402344 307.074219 218.753906 307.511719 218.753906 C 313.488281 218.753906 318.332031 223.601562 318.332031 229.582031 L 318.332031 229.792969 C 318.332031 230.230469 318.6875 230.585938 319.125 230.585938 C 319.5625 230.585938 319.917969 230.230469 319.917969 229.792969 L 319.917969 204.546875 C 319.917969 204.128906 319.59375 203.785156 319.179688 203.753906 Z M 268.507812 253.246094 L 271.730469 253.246094 L 275.210938 256.734375 L 271.992188 256.734375 Z M 242.699219 253.246094 L 246.078125 256.628906 C 241.960938 256.429688 237.949219 255.273438 234.359375 253.246094 L 242.753906 253.246094 Z M 209.816406 251.660156 C 211.453125 250.710938 214.304688 249.546875 218.472656 249.546875 C 221.796875 249.5 225.085938 250.222656 228.078125 251.660156 Z M 199.632812 253.828125 C 198.960938 253.828125 198.417969 253.28125 198.417969 252.613281 C 198.417969 251.941406 198.960938 251.398438 199.632812 251.398438 C 200.300781 251.398438 200.84375 251.941406 200.84375 252.613281 C 200.816406 253.261719 200.28125 253.773438 199.632812 253.773438 Z M 248.292969 256.628906 L 244.917969 253.246094 L 246.238281 253.246094 L 249.613281 256.628906 Z M 251.777344 256.574219 L 248.453125 253.246094 L 264.234375 253.246094 C 262.597656 254.355469 259.007812 256.046875 251.777344 256.519531 Z M 291.414062 256.734375 L 291.203125 256.734375 C 285.230469 256.734375 280.386719 251.882812 280.386719 245.90625 C 280.386719 245.46875 280.03125 245.113281 279.59375 245.113281 C 279.15625 245.113281 278.800781 245.46875 278.800781 245.90625 C 278.800781 250.394531 281.222656 254.535156 285.136719 256.734375 L 277.480469 256.734375 L 273.996094 253.246094 L 277.164062 253.246094 C 277.601562 253.246094 277.957031 252.890625 277.957031 252.453125 C 277.957031 252.015625 277.601562 251.660156 277.164062 251.660156 L 231.457031 251.660156 C 228.078125 249.761719 224.382812 247.964844 218.421875 247.964844 C 211.558594 247.964844 208.023438 250.761719 207.074219 251.660156 L 202.214844 251.660156 C 201.683594 250.210938 200.074219 249.46875 198.621094 250.007812 C 197.171875 250.542969 196.433594 252.152344 196.96875 253.601562 C 197.503906 255.054688 199.113281 255.792969 200.5625 255.257812 C 201.453125 254.929688 202.117188 254.171875 202.324219 253.246094 L 231.035156 253.246094 L 231.617188 253.5625 C 235.730469 255.886719 239.953125 258.261719 248.136719 258.261719 C 260.800781 258.261719 265.183594 254.832031 266.453125 253.457031 L 269.773438 256.785156 L 266.238281 256.785156 C 265.800781 256.785156 265.449219 257.140625 265.449219 257.578125 C 265.449219 258.015625 265.800781 258.367188 266.238281 258.367188 L 291.46875 258.367188 C 291.867188 258.195312 292 257.609375 291.824219 257.207031 C 291.746094 257.023438 291.601562 256.878906 291.46875 256.679688 Z M 315.378906 252.558594 L 315.90625 254.515625 L 313.953125 253.988281 L 313.425781 252.03125 Z M 312.792969 255.148438 L 311.316406 249.917969 L 316.539062 251.398438 L 318.019531 256.628906 Z M 317.964844 250.5 C 317.886719 250.246094 317.691406 250.046875 317.4375 249.972656 L 310.574219 248.015625 L 309.46875 246.90625 L 311.894531 244.480469 C 312.160156 244.128906 312.085938 243.632812 311.734375 243.367188 C 311.457031 243.160156 311.066406 243.160156 310.789062 243.367188 L 308.359375 245.800781 L 306.878906 244.320312 L 311.523438 239.671875 C 311.875 239.410156 311.945312 238.914062 311.683594 238.5625 C 311.421875 238.210938 310.925781 238.140625 310.574219 238.40625 C 310.515625 238.449219 310.460938 238.5 310.417969 238.5625 L 305.773438 243.210938 L 301.917969 239.355469 C 297.800781 235.390625 297.273438 229.316406 300.652344 225.78125 C 302.992188 223.3125 306.710938 222.746094 309.679688 224.40625 C 311.609375 225.34375 312.894531 227.230469 313.054688 229.371094 C 313.183594 231.273438 312.300781 233.101562 310.734375 234.179688 C 309.792969 234.820312 308.621094 235.035156 307.511719 234.757812 C 305.664062 234.335938 304.453125 233.226562 304.191406 231.75 C 303.960938 230.507812 304.476562 229.25 305.507812 228.527344 C 305.808594 228.328125 306.15625 228.203125 306.511719 228.15625 C 305.664062 229.160156 305.792969 230.660156 306.792969 231.507812 C 307.796875 232.351562 309.292969 232.226562 310.140625 231.222656 C 310.941406 230.277344 310.878906 228.871094 309.996094 227.996094 L 309.941406 227.996094 C 308.589844 226.457031 306.308594 226.164062 304.609375 227.3125 C 303.132812 228.367188 302.378906 230.167969 302.65625 231.960938 C 303.082031 234.070312 304.769531 235.65625 307.199219 236.183594 L 308.515625 236.34375 C 309.644531 236.359375 310.75 236.027344 311.683594 235.390625 C 313.71875 233.996094 314.863281 231.625 314.691406 229.160156 C 314.496094 226.480469 312.886719 224.105469 310.46875 222.929688 C 306.867188 220.933594 302.375 221.628906 299.542969 224.617188 C 296.589844 227.734375 296.164062 232.4375 298.066406 236.503906 C 294.003906 234.601562 289.304688 235.023438 286.191406 237.980469 C 283.203125 240.816406 282.507812 245.3125 284.503906 248.914062 C 285.679688 251.332031 288.050781 252.941406 290.730469 253.140625 L 291.152344 253.140625 C 293.449219 253.148438 295.601562 252.019531 296.90625 250.128906 C 297.773438 248.824219 298.058594 247.21875 297.699219 245.691406 C 297.117188 243.265625 295.53125 241.574219 293.476562 241.152344 C 291.613281 240.785156 289.710938 241.550781 288.621094 243.105469 C 287.351562 244.957031 287.824219 247.488281 289.675781 248.757812 L 289.726562 248.757812 C 290.816406 249.433594 292.25 249.097656 292.925781 248.003906 C 293.601562 246.914062 293.265625 245.480469 292.175781 244.804688 C 291.34375 244.292969 290.285156 244.351562 289.515625 244.953125 C 289.5625 244.59375 289.6875 244.253906 289.886719 243.949219 C 290.609375 242.917969 291.867188 242.402344 293.105469 242.628906 C 294.582031 242.894531 295.691406 244.109375 296.113281 245.957031 C 296.386719 247.0625 296.175781 248.234375 295.53125 249.179688 C 294.457031 250.75 292.628906 251.632812 290.730469 251.503906 C 288.59375 251.339844 286.703125 250.054688 285.769531 248.121094 C 284.109375 245.152344 284.675781 241.433594 287.140625 239.089844 C 290.675781 235.65625 296.800781 236.238281 300.707031 240.359375 L 300.757812 240.359375 L 304.558594 244.160156 L 299.914062 248.808594 C 299.5625 249.070312 299.492188 249.570312 299.753906 249.917969 C 300.019531 250.269531 300.511719 250.339844 300.863281 250.078125 C 300.925781 250.03125 300.976562 249.980469 301.023438 249.917969 L 305.664062 245.269531 L 307.144531 246.75 L 304.71875 249.179688 C 304.367188 249.441406 304.296875 249.9375 304.558594 250.289062 C 304.820312 250.636719 305.316406 250.710938 305.664062 250.445312 C 305.726562 250.402344 305.78125 250.347656 305.824219 250.289062 L 308.253906 247.859375 L 309.359375 248.96875 L 311.261719 255.78125 C 311.335938 256.035156 311.535156 256.234375 311.789062 256.308594 L 318.808594 258.261719 L 319.019531 258.261719 C 319.457031 258.25 319.800781 257.886719 319.789062 257.449219 C 319.785156 257.382812 319.777344 257.324219 319.761719 257.261719 Z M 199.683594 7.476562 C 200.335938 7.476562 200.871094 7.992188 200.898438 8.640625 C 200.929688 9.3125 200.410156 9.878906 199.738281 9.910156 C 199.066406 9.9375 198.5 9.417969 198.472656 8.746094 C 198.445312 8.078125 198.964844 7.507812 199.632812 7.480469 C 199.648438 7.480469 199.667969 7.476562 199.683594 7.476562 Z M 218.527344 11.597656 C 214.355469 11.597656 211.558594 10.492188 209.871094 9.484375 L 228.078125 9.484375 C 225.101562 10.917969 221.832031 11.640625 218.527344 11.597656 Z M 246.078125 4.574219 L 242.699219 7.953125 L 234.414062 7.953125 C 238.003906 5.929688 242.015625 4.769531 246.132812 4.574219 Z M 275.265625 4.417969 L 271.78125 7.902344 L 268.5625 7.902344 L 272.046875 4.417969 Z M 264.285156 7.902344 L 248.558594 7.902344 L 251.882812 4.574219 C 259.113281 5.050781 262.703125 6.738281 264.339844 7.902344 Z M 248.347656 4.519531 L 249.667969 4.519531 L 246.289062 7.902344 L 244.96875 7.902344 Z M 199.683594 11.492188 C 200.90625 11.472656 201.976562 10.660156 202.324219 9.484375 L 207.125 9.484375 C 208.074219 10.382812 211.613281 13.183594 218.472656 13.183594 C 224.4375 13.183594 228.078125 11.386719 231.507812 9.484375 L 277.164062 9.484375 C 277.601562 9.484375 277.957031 9.128906 277.957031 8.691406 C 277.957031 8.257812 277.601562 7.902344 277.164062 7.902344 L 273.996094 7.902344 L 277.480469 4.417969 L 285.242188 4.417969 C 281.328125 6.613281 278.90625 10.753906 278.90625 15.246094 C 278.90625 15.679688 279.261719 16.035156 279.699219 16.035156 C 280.136719 16.035156 280.488281 15.679688 280.488281 15.246094 C 280.488281 9.261719 285.335938 4.417969 291.308594 4.417969 L 291.523438 4.417969 C 291.960938 4.417969 292.3125 4.0625 292.3125 3.625 C 292.3125 3.183594 291.960938 2.832031 291.523438 2.832031 L 266.292969 2.832031 C 265.855469 2.832031 265.5 3.183594 265.5 3.625 C 265.5 4.0625 265.855469 4.417969 266.292969 4.417969 L 269.828125 4.417969 L 266.503906 7.742188 C 265.238281 6.316406 260.855469 2.9375 248.1875 2.9375 C 240.007812 2.9375 235.785156 5.3125 231.667969 7.636719 L 231.089844 7.953125 L 202.375 7.953125 C 201.96875 6.464844 200.429688 5.585938 198.9375 5.996094 C 197.449219 6.402344 196.570312 7.941406 196.980469 9.433594 C 197.3125 10.652344 198.421875 11.496094 199.683594 11.492188 Z M 314.851562 54.332031 L 314.851562 51.109375 L 318.332031 47.621094 L 318.332031 50.84375 Z M 318.175781 71.074219 L 314.851562 74.402344 L 314.851562 58.605469 C 316.066406 60.246094 317.753906 63.835938 318.226562 71.074219 Z M 314.851562 88.554688 L 314.851562 80.15625 L 318.226562 76.777344 C 318.054688 80.910156 316.917969 84.945312 314.902344 88.554688 Z M 313.265625 113.117188 C 312.316406 111.480469 311.15625 108.625 311.15625 104.453125 C 311.105469 101.132812 311.828125 97.839844 313.265625 94.84375 Z M 315.429688 123.3125 C 315.429688 123.980469 314.886719 124.527344 314.21875 124.527344 C 313.546875 124.527344 313.003906 123.980469 313.003906 123.3125 C 313.003906 122.640625 313.546875 122.09375 314.21875 122.09375 C 314.886719 122.066406 315.453125 122.585938 315.484375 123.257812 Z M 318.28125 74.558594 L 318.226562 74.558594 L 314.851562 77.941406 L 314.851562 76.621094 L 318.226562 73.238281 C 318.296875 73.625 318.332031 74.046875 318.332031 74.507812 Z M 319.125 30.613281 C 318.6875 30.613281 318.332031 30.96875 318.332031 31.40625 L 318.332031 31.617188 C 318.332031 37.597656 313.488281 42.445312 307.511719 42.445312 C 307.074219 42.445312 306.722656 42.796875 306.722656 43.238281 C 306.722656 43.675781 307.074219 44.03125 307.511719 44.03125 C 312 44.03125 316.140625 41.605469 318.332031 37.691406 L 318.332031 45.351562 L 314.851562 48.835938 L 314.851562 45.667969 C 314.851562 45.230469 314.496094 44.875 314.058594 44.875 C 313.621094 44.875 313.265625 45.230469 313.265625 45.667969 L 313.265625 91.355469 C 311.367188 94.738281 309.574219 98.433594 309.574219 104.402344 C 309.574219 111.269531 312.371094 114.808594 313.265625 115.757812 L 313.265625 120.617188 C 311.816406 121.152344 311.078125 122.765625 311.613281 124.214844 C 312.148438 125.664062 313.757812 126.40625 315.207031 125.871094 C 316.65625 125.332031 317.398438 123.722656 316.859375 122.273438 C 316.53125 121.382812 315.773438 120.71875 314.851562 120.511719 L 314.851562 91.832031 L 315.167969 91.25 C 317.488281 87.128906 319.863281 82.902344 319.863281 74.71875 C 319.863281 62.039062 316.433594 57.65625 315.0625 56.390625 L 318.386719 53.0625 L 318.386719 56.601562 C 318.386719 57.039062 318.742188 57.390625 319.179688 57.390625 C 319.617188 57.390625 319.96875 57.039062 319.96875 56.601562 L 319.96875 31.40625 C 319.96875 30.96875 319.617188 30.613281 319.179688 30.613281 Z M 315.589844 8.851562 L 313.636719 9.378906 L 314.164062 7.425781 L 316.117188 6.898438 Z M 316.75 10.015625 L 311.523438 11.492188 L 313.003906 6.265625 L 318.226562 4.785156 Z M 319.917969 3.042969 C 319.710938 2.828125 319.40625 2.75 319.125 2.832031 L 312.210938 4.835938 C 311.957031 4.914062 311.761719 5.113281 311.683594 5.367188 L 309.730469 12.230469 L 308.621094 13.34375 L 306.195312 10.910156 C 305.84375 10.648438 305.347656 10.722656 305.085938 11.070312 C 304.875 11.351562 304.875 11.742188 305.085938 12.019531 L 307.511719 14.453125 L 306.035156 15.929688 L 301.390625 11.28125 C 301.042969 11.019531 300.546875 11.089844 300.28125 11.441406 C 300.074219 11.722656 300.074219 12.109375 300.28125 12.390625 L 304.929688 17.039062 L 301.074219 20.894531 C 297.117188 25.015625 291.046875 25.542969 287.511719 22.164062 C 285.042969 19.820312 284.480469 16.101562 286.136719 13.132812 C 287.074219 11.199219 288.960938 9.914062 291.101562 9.75 C 293 9.621094 294.824219 10.503906 295.902344 12.074219 C 296.542969 13.019531 296.753906 14.1875 296.484375 15.296875 C 296.058594 17.144531 294.953125 18.359375 293.476562 18.625 C 292.234375 18.851562 290.976562 18.335938 290.253906 17.304688 C 290.054688 17.003906 289.929688 16.65625 289.886719 16.300781 C 290.886719 17.144531 292.386719 17.019531 293.230469 16.015625 C 294.078125 15.011719 293.949219 13.511719 292.949219 12.667969 C 292.003906 11.867188 290.597656 11.929688 289.726562 12.8125 L 289.675781 12.8125 C 288.136719 14.164062 287.84375 16.449219 288.988281 18.148438 C 290.039062 19.664062 291.863281 20.445312 293.683594 20.15625 C 295.796875 19.734375 297.378906 18.042969 297.90625 15.613281 C 298.269531 14.089844 297.984375 12.480469 297.117188 11.175781 C 295.71875 9.140625 293.351562 7.992188 290.886719 8.164062 C 288.210938 8.363281 285.835938 9.976562 284.660156 12.390625 C 282.664062 15.996094 283.359375 20.492188 286.347656 23.324219 C 288.191406 25.054688 290.632812 26 293.15625 25.964844 C 294.894531 25.945312 296.605469 25.550781 298.171875 24.804688 C 296.273438 28.871094 296.691406 33.570312 299.703125 36.6875 C 301.382812 38.488281 303.734375 39.5 306.195312 39.488281 C 307.738281 39.484375 309.261719 39.101562 310.628906 38.378906 C 313.042969 37.203125 314.652344 34.828125 314.851562 32.144531 C 315.015625 29.710938 313.890625 27.367188 311.894531 25.964844 C 310.589844 25.097656 308.984375 24.8125 307.460938 25.171875 C 305.03125 25.753906 303.34375 27.339844 302.921875 29.398438 C 302.558594 31.261719 303.320312 33.167969 304.875 34.257812 C 306.726562 35.527344 309.253906 35.054688 310.523438 33.203125 L 310.574219 33.203125 C 311.25 32.109375 310.914062 30.675781 309.824219 30.003906 C 308.734375 29.324219 307.304688 29.660156 306.625 30.753906 C 306.113281 31.582031 306.171875 32.644531 306.773438 33.414062 C 306.417969 33.367188 306.074219 33.242188 305.773438 33.042969 C 304.738281 32.320312 304.226562 31.0625 304.453125 29.820312 C 304.71875 28.339844 305.929688 27.234375 307.777344 26.8125 C 308.886719 26.542969 310.054688 26.753906 310.996094 27.390625 C 312.566406 28.46875 313.449219 30.296875 313.320312 32.199219 C 313.160156 34.335938 311.871094 36.230469 309.941406 37.164062 C 306.972656 38.824219 303.257812 38.257812 300.914062 35.789062 C 297.484375 32.25 298.066406 26.125 302.183594 22.214844 L 306.035156 18.359375 L 310.679688 23.007812 C 311.03125 23.269531 311.527344 23.199219 311.789062 22.847656 C 312 22.570312 312 22.179688 311.789062 21.898438 L 307.144531 17.25 L 308.621094 15.773438 L 311.050781 18.199219 C 311.3125 18.550781 311.808594 18.621094 312.160156 18.359375 C 312.507812 18.097656 312.578125 17.601562 312.316406 17.25 C 312.273438 17.191406 312.21875 17.136719 312.160156 17.09375 L 309.730469 14.664062 L 310.839844 13.550781 L 317.648438 11.652344 C 317.898438 11.574219 318.097656 11.375 318.175781 11.125 L 320.128906 4.097656 C 320.355469 3.757812 320.289062 3.300781 319.96875 3.042969 Z M 69.738281 51.003906 L 69.738281 54.222656 L 66.253906 50.738281 L 66.253906 47.515625 Z M 73.433594 104.347656 C 73.433594 108.519531 72.324219 111.320312 71.324219 113.011719 L 71.324219 94.789062 C 72.769531 97.765625 73.511719 101.039062 73.484375 104.347656 Z M 71.742188 123.207031 C 71.742188 123.875 71.199219 124.421875 70.53125 124.417969 C 69.859375 124.417969 69.316406 123.875 69.316406 123.203125 C 69.316406 122.554688 69.828125 122.019531 70.476562 121.992188 L 70.53125 121.992188 C 71.199219 121.960938 71.765625 122.480469 71.796875 123.152344 C 71.796875 123.171875 71.796875 123.1875 71.796875 123.207031 Z M 66.414062 76.726562 L 69.792969 80.105469 L 69.792969 88.503906 C 67.78125 84.890625 66.640625 80.855469 66.464844 76.726562 Z M 69.792969 58.503906 L 69.792969 74.292969 L 66.464844 70.96875 C 66.941406 63.730469 68.628906 60.140625 69.792969 58.503906 Z M 66.359375 74.453125 C 66.359375 73.996094 66.359375 73.554688 66.359375 73.132812 L 69.738281 76.515625 L 69.738281 77.835938 Z M 65.519531 57.339844 C 65.953125 57.339844 66.308594 56.984375 66.308594 56.546875 L 66.308594 53.011719 L 69.632812 56.335938 C 68.207031 57.605469 64.832031 61.988281 64.832031 74.664062 C 64.832031 82.851562 67.207031 87.078125 69.527344 91.195312 L 69.84375 91.777344 L 69.84375 120.511719 C 68.363281 120.949219 67.515625 122.507812 67.953125 123.988281 C 68.390625 125.472656 69.945312 126.320312 71.429688 125.882812 C 72.910156 125.445312 73.757812 123.886719 73.320312 122.40625 C 73.050781 121.492188 72.335938 120.78125 71.429688 120.511719 L 71.429688 115.707031 C 72.324219 114.753906 75.125 111.214844 75.125 104.347656 C 75.125 98.378906 73.328125 94.738281 71.429688 91.304688 L 71.429688 45.613281 C 71.429688 45.175781 71.074219 44.824219 70.636719 44.824219 C 70.199219 44.824219 69.84375 45.175781 69.84375 45.613281 L 69.84375 48.785156 L 66.359375 45.296875 L 66.359375 37.585938 C 68.546875 41.484375 72.660156 43.90625 77.128906 43.921875 C 77.5625 43.921875 77.921875 43.570312 77.921875 43.132812 C 77.921875 42.695312 77.5625 42.339844 77.128906 42.339844 C 71.152344 42.339844 66.308594 37.492188 66.308594 31.511719 L 66.308594 31.300781 C 66.308594 30.863281 65.953125 30.507812 65.519531 30.507812 C 65.078125 30.507812 64.722656 30.863281 64.722656 31.300781 L 64.722656 56.546875 C 64.722656 56.984375 65.078125 57.339844 65.515625 57.339844 C 65.515625 57.339844 65.515625 57.339844 65.519531 57.339844 Z M 185.117188 9.75 C 184.445312 9.75 183.902344 9.207031 183.902344 8.535156 C 183.902344 7.863281 184.445312 7.320312 185.117188 7.320312 C 185.785156 7.320312 186.332031 7.863281 186.332031 8.535156 C 186.332031 9.207031 185.789062 9.75 185.117188 9.75 C 185.101562 9.75 185.082031 9.75 185.0625 9.75 Z M 166.273438 11.597656 C 162.949219 11.648438 159.664062 10.925781 156.667969 9.484375 L 174.878906 9.484375 C 173.242188 10.4375 170.390625 11.597656 166.273438 11.597656 Z M 109.480469 4.363281 L 112.703125 4.363281 L 116.1875 7.847656 L 112.964844 7.847656 Z M 132.917969 4.519531 L 136.242188 7.847656 L 120.460938 7.847656 C 122.097656 6.738281 125.683594 5.050781 132.917969 4.574219 Z M 138.460938 7.847656 L 135.082031 4.46875 L 136.398438 4.46875 L 139.777344 7.847656 Z M 141.996094 7.847656 L 138.617188 4.46875 C 142.734375 4.664062 146.746094 5.824219 150.335938 7.847656 Z M 185.0625 5.683594 C 183.773438 5.699219 182.664062 6.59375 182.371094 7.847656 L 153.660156 7.847656 L 153.078125 7.53125 C 148.960938 5.207031 144.738281 2.832031 136.558594 2.832031 C 123.890625 2.832031 119.511719 6.265625 118.246094 7.636719 L 114.917969 4.308594 L 118.453125 4.308594 C 118.890625 4.308594 119.246094 3.957031 119.246094 3.515625 C 119.246094 3.078125 118.890625 2.722656 118.453125 2.722656 L 93.277344 2.722656 C 92.839844 2.722656 92.488281 3.078125 92.488281 3.515625 C 92.488281 3.957031 92.839844 4.308594 93.277344 4.308594 L 93.492188 4.308594 C 99.464844 4.339844 104.285156 9.210938 104.257812 15.191406 C 104.257812 15.207031 104.257812 15.226562 104.257812 15.246094 C 104.257812 15.679688 104.613281 16.035156 105.050781 16.035156 C 105.484375 16.035156 105.839844 15.679688 105.839844 15.246094 C 105.839844 10.753906 103.421875 6.613281 99.507812 4.417969 L 107.214844 4.417969 L 110.695312 7.902344 L 107.53125 7.902344 C 107.09375 7.902344 106.738281 8.257812 106.738281 8.691406 C 106.738281 9.128906 107.09375 9.484375 107.53125 9.484375 L 153.183594 9.484375 C 156.5625 11.386719 160.257812 13.183594 166.222656 13.183594 C 173.082031 13.183594 176.617188 10.382812 177.570312 9.484375 L 182.425781 9.484375 C 182.949219 10.941406 184.554688 11.691406 186.003906 11.167969 C 187.457031 10.644531 188.210938 9.039062 187.6875 7.585938 C 187.289062 6.476562 186.238281 5.738281 185.0625 5.738281 Z M 69.316406 8.535156 L 68.789062 6.582031 L 70.742188 7.109375 L 71.269531 9.0625 Z M 71.902344 5.945312 L 73.382812 11.175781 L 68.15625 9.699219 L 66.679688 4.46875 Z M 66.730469 10.59375 C 66.804688 10.847656 67.003906 11.046875 67.257812 11.125 L 74.117188 13.078125 L 75.226562 14.1875 L 72.800781 16.617188 C 72.453125 16.878906 72.378906 17.375 72.644531 17.726562 C 72.90625 18.078125 73.398438 18.148438 73.75 17.886719 C 73.808594 17.839844 73.863281 17.785156 73.910156 17.726562 L 76.335938 15.296875 L 77.8125 16.773438 L 73.171875 21.421875 C 72.820312 21.6875 72.75 22.183594 73.011719 22.53125 C 73.273438 22.882812 73.769531 22.953125 74.117188 22.691406 C 74.179688 22.644531 74.234375 22.59375 74.277344 22.53125 L 78.921875 17.886719 L 82.777344 21.738281 C 86.894531 25.699219 87.421875 31.773438 84.042969 35.316406 C 81.699219 37.78125 77.984375 38.347656 75.019531 36.6875 C 73.089844 35.753906 71.800781 33.863281 71.640625 31.722656 C 71.546875 29.859375 72.425781 28.082031 73.960938 27.019531 C 74.90625 26.386719 76.074219 26.175781 77.179688 26.441406 C 79.027344 26.863281 80.242188 27.972656 80.507812 29.453125 C 80.734375 30.691406 80.21875 31.949219 79.1875 32.675781 C 78.882812 32.871094 78.542969 33 78.183594 33.042969 C 79.03125 32.042969 78.902344 30.542969 77.898438 29.695312 C 76.898438 28.847656 75.398438 28.976562 74.554688 29.976562 C 73.753906 30.925781 73.816406 32.328125 74.699219 33.203125 L 74.753906 33.203125 C 76.105469 34.742188 78.386719 35.035156 80.082031 33.886719 C 81.597656 32.816406 82.359375 30.964844 82.035156 29.132812 C 81.617188 27.019531 79.925781 25.4375 77.5 24.910156 C 75.976562 24.546875 74.367188 24.835938 73.0625 25.699219 C 71.027344 27.097656 69.882812 29.46875 70.054688 31.933594 C 70.253906 34.617188 71.863281 36.988281 74.277344 38.167969 C 75.644531 38.894531 77.167969 39.273438 78.710938 39.277344 C 81.171875 39.292969 83.523438 38.277344 85.203125 36.476562 C 88.160156 33.359375 88.582031 28.660156 86.734375 24.59375 C 88.300781 25.339844 90.011719 25.734375 91.75 25.753906 C 94.273438 25.789062 96.714844 24.84375 98.558594 23.113281 C 101.546875 20.28125 102.242188 15.785156 100.246094 12.179688 C 99.070312 9.761719 96.695312 8.152344 94.019531 7.953125 C 91.585938 7.789062 89.242188 8.910156 87.84375 10.910156 C 86.976562 12.21875 86.691406 13.824219 87.050781 15.347656 C 87.632812 17.777344 89.214844 19.46875 91.273438 19.890625 C 93.132812 20.257812 95.039062 19.492188 96.128906 17.9375 C 97.394531 16.082031 96.925781 13.554688 95.074219 12.285156 L 95.019531 12.285156 C 93.929688 11.609375 92.5 11.945312 91.824219 13.035156 C 91.148438 14.128906 91.484375 15.558594 92.574219 16.238281 C 93.402344 16.75 94.464844 16.691406 95.230469 16.089844 C 95.1875 16.445312 95.058594 16.789062 94.863281 17.09375 C 94.136719 18.125 92.882812 18.640625 91.644531 18.414062 C 90.164062 18.148438 89.054688 16.933594 88.632812 15.085938 C 88.363281 13.976562 88.570312 12.804688 89.214844 11.863281 C 90.292969 10.292969 92.117188 9.410156 94.019531 9.539062 C 96.15625 9.699219 98.046875 10.988281 98.980469 12.917969 C 100.636719 15.890625 100.070312 19.609375 97.605469 21.953125 C 93.964844 25.332031 87.84375 24.75 83.9375 20.683594 L 80.082031 16.828125 L 84.730469 12.179688 C 84.992188 11.828125 84.921875 11.332031 84.570312 11.070312 C 84.289062 10.859375 83.902344 10.859375 83.621094 11.070312 L 78.976562 15.71875 L 77.5 14.238281 L 79.925781 11.8125 C 80.1875 11.460938 80.117188 10.964844 79.769531 10.699219 C 79.484375 10.492188 79.097656 10.492188 78.816406 10.699219 L 76.390625 13.132812 L 75.28125 12.019531 L 73.328125 5.15625 C 73.25 4.902344 73.054688 4.703125 72.800781 4.625 L 65.726562 2.621094 C 65.300781 2.519531 64.875 2.785156 64.777344 3.214844 C 64.75 3.332031 64.75 3.453125 64.777344 3.570312 L 66.730469 10.59375 " fill-opacity="1" fill-rule="nonzero"/></g><g fill="#ffffff" fill-opacity="1"><g transform="translate(130.959458, 236.027298)"><g><path d="M 6.933594 5.359375 C 9.371094 5.359375 11.46875 4.234375 13.457031 3.597656 C 13.382812 3.484375 13.34375 3.335938 13.34375 3.1875 C 13.34375 2.585938 13.71875 2.175781 14.28125 2.175781 C 14.882812 2.175781 15.257812 2.660156 15.21875 3.1875 C 16.082031 3.074219 17.09375 3.1875 17.917969 3.484375 L 18.332031 2.625 C 16.753906 1.835938 16.082031 -0.261719 16.082031 -4.421875 L 16.082031 -7.984375 C 16.417969 -7.984375 16.71875 -7.945312 17.019531 -7.945312 C 22.640625 -7.945312 29.425781 -10.832031 29.425781 -17.355469 C 29.425781 -23.089844 23.652344 -26.988281 15.144531 -26.988281 C 7.195312 -26.988281 0.5625 -23.277344 0.5625 -18.816406 C 0.5625 -16.980469 1.761719 -15.59375 3.636719 -15.59375 C 5.886719 -15.59375 7.648438 -17.429688 7.757812 -19.640625 C 7.496094 -19.117188 6.972656 -18.703125 6.371094 -18.703125 C 5.546875 -18.703125 5.171875 -19.417969 5.171875 -20.128906 C 5.171875 -22.753906 9.820312 -25.191406 14.882812 -25.191406 C 19.941406 -25.191406 24.964844 -22.941406 24.964844 -17.207031 C 24.964844 -12.707031 21.328125 -9.820312 17.019531 -9.820312 C 16.71875 -9.820312 16.417969 -9.820312 16.082031 -9.859375 L 16.082031 -16.867188 C 17.242188 -16.605469 18.367188 -16.007812 18.367188 -14.730469 C 18.367188 -14.058594 17.917969 -13.496094 17.207031 -13.496094 C 16.941406 -13.496094 16.71875 -13.570312 16.492188 -13.683594 C 16.605469 -12.59375 17.691406 -11.996094 18.703125 -11.996094 C 20.242188 -11.996094 21.628906 -12.933594 21.628906 -14.582031 C 21.628906 -17.28125 18.59375 -18.367188 16.082031 -18.703125 L 16.082031 -19.53125 C 16.082031 -20.953125 16.117188 -23.089844 16.570312 -23.839844 L 16.457031 -23.914062 C 15.40625 -22.753906 12.257812 -21.402344 10.796875 -21.292969 L 10.796875 -21.179688 C 11.65625 -20.878906 12.070312 -20.242188 12.296875 -18.628906 C 9.597656 -18.144531 6.785156 -16.71875 6.785156 -13.792969 C 6.785156 -10.722656 9.519531 -9.183594 12.445312 -8.472656 L 12.445312 -3.222656 C 12.445312 1.125 10.382812 3.898438 7.160156 3.898438 C 6.898438 3.898438 6.597656 3.898438 6.296875 3.785156 C 6.410156 3.523438 6.484375 3.261719 6.484375 3 C 6.484375 2.210938 5.886719 1.648438 5.097656 1.648438 C 4.273438 1.648438 3.671875 2.25 3.671875 3.109375 C 3.671875 4.199219 4.609375 5.359375 6.933594 5.359375 Z M 10.757812 -13.871094 C 10.757812 -15.105469 11.46875 -16.042969 12.445312 -16.570312 L 12.445312 -10.984375 C 11.46875 -11.621094 10.757812 -12.558594 10.757812 -13.871094 Z M 10.757812 -13.871094 "/></g></g></g><g fill="#ffffff" fill-opacity="1"><g transform="translate(161.352927, 236.027298)"><g><path d="M 0.523438 -0.113281 L 0.523438 0 L 7.121094 0 L 7.121094 -0.113281 C 5.921875 -0.523438 5.511719 -1.613281 5.511719 -4.421875 L 5.511719 -13.496094 C 8.246094 -11.507812 10.382812 -6.859375 11.28125 -3.074219 C 11.65625 -1.5 11.359375 -0.488281 10.535156 -0.113281 L 10.570312 0 L 16.941406 0 L 16.941406 -0.113281 C 16.117188 -0.488281 15.445312 -1.574219 14.84375 -3.484375 C 13.90625 -6.410156 12.296875 -9.597656 10.644531 -11.65625 C 13.417969 -11.546875 15.667969 -13.605469 15.667969 -16.382812 C 15.667969 -19.230469 13.269531 -21.367188 9.632812 -21.367188 L 0.523438 -21.367188 L 0.523438 -21.253906 C 1.722656 -20.839844 2.136719 -19.753906 2.136719 -16.941406 L 2.136719 -4.421875 C 2.136719 -1.613281 1.722656 -0.523438 0.523438 -0.113281 Z M 5.511719 -18.554688 L 5.511719 -19.304688 L 7.984375 -19.304688 C 10.308594 -19.304688 11.957031 -17.957031 11.957031 -16.15625 C 11.957031 -14.84375 11.058594 -13.683594 9.371094 -13.683594 C 7.382812 -13.683594 5.511719 -15.707031 5.511719 -18.554688 Z M 5.511719 -18.554688 "/></g></g></g><g fill="#ffffff" fill-opacity="1"><g transform="translate(177.917562, 236.027298)"><g><path d="M 9.519531 -1.949219 C 6.296875 -1.949219 4.199219 -8.210938 4.199219 -13.269531 C 4.199219 -16.605469 5.136719 -19.417969 7.308594 -19.417969 C 10.535156 -19.417969 12.59375 -13.15625 12.59375 -8.132812 C 12.59375 -4.761719 11.65625 -1.949219 9.519531 -1.949219 Z M 0.898438 -11.058594 C 0.898438 -4.125 3.824219 0.335938 8.398438 0.335938 C 12.855469 0.335938 15.894531 -4.125 15.894531 -10.683594 C 15.894531 -17.242188 12.855469 -21.703125 8.398438 -21.703125 C 3.710938 -21.703125 0.898438 -17.730469 0.898438 -11.058594 Z M 0.898438 -11.058594 "/></g></g></g><g fill="#ffffff" fill-opacity="1"><g transform="translate(194.707051, 236.027298)"><g><path d="M 5.285156 0.414062 C 8.058594 0.414062 10.796875 -1.011719 11.621094 -4.160156 C 10.945312 -4.460938 10.832031 -5.324219 10.832031 -5.996094 L 10.832031 -17.316406 C 10.832031 -18.667969 10.871094 -20.730469 12.445312 -21.253906 L 12.445312 -21.367188 L 5.847656 -21.367188 L 5.847656 -21.253906 C 7.421875 -20.730469 7.460938 -18.667969 7.460938 -17.316406 L 7.460938 -3.9375 C 7.460938 -2.660156 6.746094 -1.835938 5.621094 -1.835938 C 4.046875 -1.835938 2.0625 -3.410156 1.761719 -6.449219 L 1.648438 -6.449219 L 0.300781 -1.5 C 1.574219 -0.226562 3.410156 0.414062 5.285156 0.414062 Z M 5.285156 0.414062 "/></g></g></g><g fill="#ffffff" fill-opacity="1"><g transform="translate(207.636459, 236.027298)"><g><path d="M 0.523438 -0.113281 L 0.523438 0 L 11.957031 0 C 12.40625 0 12.894531 0.1875 13.042969 0.414062 L 14.058594 -5.097656 L 13.90625 -5.136719 C 13.195312 -3.375 11.394531 -2.25 9.296875 -2.25 L 5.511719 -2.25 L 5.511719 -12.632812 C 5.773438 -12.894531 6.109375 -13.042969 6.523438 -13.042969 C 7.871094 -13.042969 8.996094 -11.996094 10.269531 -11.996094 C 11.84375 -11.996094 13.082031 -13.605469 13.417969 -15.03125 L 13.308594 -15.070312 C 13.007812 -14.582031 12.519531 -14.355469 11.921875 -14.355469 C 10.683594 -14.355469 9.519531 -15.257812 8.171875 -15.257812 C 7.046875 -15.257812 6.109375 -14.621094 5.585938 -13.605469 L 5.511719 -13.605469 L 5.511719 -19.230469 L 9.484375 -19.230469 C 11.058594 -19.230469 11.769531 -18.703125 11.65625 -17.65625 L 11.769531 -17.617188 L 13.757812 -21.667969 C 13.53125 -21.441406 12.746094 -21.367188 12.21875 -21.367188 L 0.523438 -21.367188 L 0.523438 -21.253906 C 1.722656 -20.839844 2.136719 -19.753906 2.136719 -16.941406 L 2.136719 -4.421875 C 2.136719 -1.613281 1.722656 -0.523438 0.523438 -0.113281 Z M 0.523438 -0.113281 "/></g></g></g><g fill="#ffffff" fill-opacity="1"><g transform="translate(222.139876, 236.027298)"><g><path d="M 8.773438 0.375 C 11.207031 0.375 13.042969 -0.523438 14.433594 -2.324219 L 14.09375 -5.847656 L 13.871094 -5.847656 C 13.230469 -3.5625 11.546875 -2.136719 9.558594 -2.136719 C 6.558594 -2.136719 4.535156 -5.472656 4.535156 -10.496094 C 4.535156 -16.082031 6.335938 -19.417969 9.332031 -19.417969 C 11.359375 -19.417969 12.855469 -17.917969 13.792969 -15.179688 L 13.90625 -15.21875 L 13.605469 -21.214844 C 13.417969 -21.027344 13.230469 -20.992188 13.042969 -20.992188 C 12.257812 -20.992188 11.207031 -21.703125 8.996094 -21.703125 C 3.785156 -21.703125 0.898438 -17.691406 0.898438 -10.496094 C 0.898438 -3.75 3.859375 0.375 8.773438 0.375 Z M 8.773438 0.375 "/></g></g></g><g fill="#ffffff" fill-opacity="1"><g transform="translate(237.093011, 236.027298)"><g><path d="M 4.046875 -0.113281 L 4.046875 0 L 10.644531 0 L 10.644531 -0.113281 C 9.445312 -0.523438 9.035156 -1.613281 9.035156 -4.421875 L 9.035156 -19.117188 L 10.347656 -19.117188 C 11.996094 -19.117188 13.417969 -17.957031 13.980469 -16.117188 L 14.132812 -16.15625 L 13.457031 -21.667969 C 13.269531 -21.480469 12.632812 -21.367188 11.921875 -21.367188 L 2.738281 -21.367188 C 2.023438 -21.367188 1.386719 -21.480469 1.199219 -21.667969 L 0.523438 -16.15625 L 0.675781 -16.117188 C 1.238281 -17.957031 2.660156 -19.117188 4.3125 -19.117188 L 5.660156 -19.117188 L 5.660156 -4.421875 C 5.660156 -1.613281 5.246094 -0.523438 4.046875 -0.113281 Z M 4.046875 -0.113281 "/></g></g></g></svg>